<svg xmlns="http://www.w3.org/2000/svg" xmlns:xlink="http://www.w3.org/1999/xlink" width="500" zoomAndPan="magnify" viewBox="0 0 375 374.999991" height="500" preserveAspectRatio="xMidYMid meet" version="1.0"><defs><g/></defs><g fill="#878987" fill-opacity="0.302"><g transform="translate(20.779948, 215.348681)"><g><path d="M 11.375 0 L 33.617188 0 C 36.867188 0 39.347656 -2.480469 39.347656 -5.730469 L 39.347656 -7.699219 C 39.347656 -10.863281 41.828125 -13.34375 44.90625 -13.34375 C 48.070312 -13.34375 50.550781 -10.777344 50.550781 -7.699219 L 50.550781 -5.730469 C 50.550781 -2.480469 53.03125 0 56.285156 0 L 78.523438 0 C 81.773438 0 84.253906 -2.480469 84.253906 -5.730469 L 84.253906 -62.699219 C 84.253906 -65.949219 81.773438 -68.429688 78.523438 -68.429688 L 71.253906 -68.429688 C 68.003906 -68.429688 65.523438 -65.949219 65.523438 -62.699219 L 65.523438 -24.976562 C 65.523438 -21.8125 63.042969 -19.332031 59.875 -19.332031 C 56.796875 -19.332031 54.316406 -21.8125 54.316406 -24.976562 L 54.316406 -62.613281 C 54.316406 -65.949219 51.835938 -68.429688 48.585938 -68.429688 L 41.316406 -68.429688 C 37.980469 -68.429688 35.582031 -65.863281 35.582031 -62.613281 L 35.582031 -24.976562 C 35.582031 -21.8125 33.101562 -19.332031 29.9375 -19.332031 C 26.859375 -19.332031 24.378906 -21.8125 24.378906 -24.976562 L 24.378906 -62.699219 C 24.378906 -65.949219 21.898438 -68.429688 18.648438 -68.429688 L 11.375 -68.429688 C 8.125 -68.429688 5.644531 -65.949219 5.644531 -62.699219 L 5.644531 -5.730469 C 5.644531 -2.480469 8.125 0 11.375 0 Z M 11.375 0 "/></g></g></g><g fill="#878987" fill-opacity="0.302"><g transform="translate(110.676016, 215.348681)"><g><path d="M 26.601562 0 L 33.359375 0 C 45.507812 0 54.316406 -8.808594 54.316406 -20.957031 L 54.316406 -47.472656 C 54.316406 -59.621094 45.507812 -68.429688 33.359375 -68.429688 L 26.601562 -68.429688 C 14.457031 -68.429688 5.644531 -59.621094 5.644531 -47.472656 L 5.644531 -20.957031 C 5.644531 -8.808594 14.457031 0 26.601562 0 Z M 29.9375 -15.480469 C 26.859375 -15.480469 24.378906 -17.960938 24.378906 -21.128906 L 24.378906 -47.300781 C 24.378906 -50.46875 26.859375 -52.949219 29.9375 -52.949219 C 33.101562 -52.949219 35.582031 -50.46875 35.582031 -47.300781 L 35.582031 -21.128906 C 35.582031 -17.960938 33.101562 -15.480469 29.9375 -15.480469 Z M 29.9375 -15.480469 "/></g></g></g><g fill="#878987" fill-opacity="0.302"><g transform="translate(170.635233, 215.348681)"><g><path d="M 11.375 0 L 18.648438 0 C 21.898438 0 24.378906 -2.480469 24.378906 -5.730469 L 24.378906 -21.214844 C 24.378906 -24.292969 26.859375 -26.773438 29.9375 -26.773438 L 42.769531 -26.773438 C 45.933594 -26.773438 48.414062 -24.292969 48.414062 -21.214844 L 48.414062 -5.730469 C 48.414062 -2.480469 50.894531 0 54.144531 0 L 61.414062 0 C 64.667969 0 67.148438 -2.480469 67.148438 -5.730469 L 67.148438 -23.351562 C 67.148438 -26.429688 64.921875 -28.570312 61.84375 -28.570312 L 61.074219 -28.570312 C 57.996094 -28.570312 55.515625 -31.050781 55.515625 -34.214844 C 55.515625 -37.378906 57.996094 -39.859375 61.074219 -39.859375 L 61.246094 -39.859375 C 64.667969 -39.859375 67.148438 -42.339844 67.148438 -45.761719 L 67.148438 -50.980469 C 67.148438 -61.074219 59.789062 -68.429688 49.695312 -68.429688 L 11.375 -68.429688 C 8.125 -68.429688 5.644531 -65.949219 5.644531 -62.699219 L 5.644531 -5.730469 C 5.644531 -2.480469 8.125 0 11.375 0 Z M 29.9375 -41.742188 C 26.859375 -41.742188 24.378906 -44.222656 24.378906 -47.300781 C 24.378906 -50.46875 26.859375 -52.949219 29.9375 -52.949219 L 42.769531 -52.949219 C 45.933594 -52.949219 48.414062 -50.46875 48.414062 -47.300781 C 48.414062 -44.222656 45.933594 -41.742188 42.769531 -41.742188 Z M 29.9375 -41.742188 "/></g></g></g><g fill="#878987" fill-opacity="0.302"><g transform="translate(243.424533, 215.348681)"><g><path d="M 11.375 0 L 18.648438 0 C 21.898438 0 24.378906 -2.480469 24.378906 -5.730469 L 24.378906 -21.128906 C 24.378906 -24.292969 26.859375 -26.773438 29.9375 -26.773438 C 33.101562 -26.773438 35.582031 -24.207031 35.582031 -21.128906 L 35.582031 -5.730469 C 35.582031 -2.480469 38.0625 0 41.316406 0 L 48.585938 0 C 51.835938 0 54.316406 -2.480469 54.316406 -5.730469 L 54.316406 -16.167969 C 54.316406 -18.21875 53.886719 -19.757812 52.777344 -21.46875 L 46.617188 -31.222656 C 45.335938 -33.273438 45.335938 -35.15625 46.617188 -37.207031 L 52.777344 -46.960938 C 53.886719 -48.671875 54.316406 -50.210938 54.316406 -52.261719 L 54.316406 -62.699219 C 54.316406 -65.949219 51.835938 -68.429688 48.585938 -68.429688 L 41.316406 -68.429688 C 38.0625 -68.429688 35.582031 -65.949219 35.582031 -62.699219 L 35.582031 -47.300781 C 35.582031 -44.222656 33.101562 -41.742188 29.9375 -41.742188 C 26.859375 -41.742188 24.378906 -44.222656 24.378906 -47.300781 L 24.378906 -62.699219 C 24.378906 -65.949219 21.898438 -68.429688 18.648438 -68.429688 L 11.375 -68.429688 C 8.125 -68.429688 5.644531 -65.949219 5.644531 -62.699219 L 5.644531 -5.730469 C 5.644531 -2.480469 8.125 0 11.375 0 Z M 11.375 0 "/></g></g></g><g fill="#878987" fill-opacity="0.302"><g transform="translate(303.38375, 215.348681)"><g><path d="M 11.375 0 L 47.046875 0 C 58.679688 0 67.148438 -8.46875 67.148438 -20.101562 L 67.148438 -21.640625 C 67.148438 -33.273438 58.679688 -41.742188 47.046875 -41.742188 L 29.9375 -41.742188 C 26.859375 -41.742188 24.378906 -44.222656 24.378906 -47.300781 C 24.378906 -50.46875 26.859375 -52.949219 29.9375 -52.949219 L 61.414062 -52.949219 C 64.667969 -52.949219 67.148438 -55.429688 67.148438 -58.679688 L 67.148438 -62.699219 C 67.148438 -65.949219 64.667969 -68.429688 61.414062 -68.429688 L 25.746094 -68.429688 C 14.113281 -68.429688 5.644531 -59.960938 5.644531 -48.328125 L 5.644531 -46.875 C 5.644531 -35.242188 14.113281 -26.773438 25.746094 -26.773438 L 42.769531 -26.773438 C 45.933594 -26.773438 48.414062 -24.207031 48.414062 -21.128906 C 48.414062 -17.960938 45.933594 -15.480469 42.769531 -15.480469 L 11.375 -15.480469 C 8.125 -15.480469 5.644531 -13 5.644531 -9.75 L 5.644531 -5.730469 C 5.644531 -2.480469 8.125 0 11.375 0 Z M 11.375 0 "/></g></g></g><g fill="#878987" fill-opacity="0.502"><g transform="translate(10.404718, 217.935506)"><g><path d="M 11.375 0 L 33.617188 0 C 36.867188 0 39.347656 -2.480469 39.347656 -5.730469 L 39.347656 -7.699219 C 39.347656 -10.863281 41.828125 -13.34375 44.90625 -13.34375 C 48.070312 -13.34375 50.550781 -10.777344 50.550781 -7.699219 L 50.550781 -5.730469 C 50.550781 -2.480469 53.03125 0 56.285156 0 L 78.523438 0 C 81.773438 0 84.253906 -2.480469 84.253906 -5.730469 L 84.253906 -62.699219 C 84.253906 -65.949219 81.773438 -68.429688 78.523438 -68.429688 L 71.253906 -68.429688 C 68.003906 -68.429688 65.523438 -65.949219 65.523438 -62.699219 L 65.523438 -24.976562 C 65.523438 -21.8125 63.042969 -19.332031 59.875 -19.332031 C 56.796875 -19.332031 54.316406 -21.8125 54.316406 -24.976562 L 54.316406 -62.613281 C 54.316406 -65.949219 51.835938 -68.429688 48.585938 -68.429688 L 41.316406 -68.429688 C 37.980469 -68.429688 35.582031 -65.863281 35.582031 -62.613281 L 35.582031 -24.976562 C 35.582031 -21.8125 33.101562 -19.332031 29.9375 -19.332031 C 26.859375 -19.332031 24.378906 -21.8125 24.378906 -24.976562 L 24.378906 -62.699219 C 24.378906 -65.949219 21.898438 -68.429688 18.648438 -68.429688 L 11.375 -68.429688 C 8.125 -68.429688 5.644531 -65.949219 5.644531 -62.699219 L 5.644531 -5.730469 C 5.644531 -2.480469 8.125 0 11.375 0 Z M 11.375 0 "/></g></g></g><g fill="#878987" fill-opacity="0.502"><g transform="translate(100.300786, 217.935506)"><g><path d="M 26.601562 0 L 33.359375 0 C 45.507812 0 54.316406 -8.808594 54.316406 -20.957031 L 54.316406 -47.472656 C 54.316406 -59.621094 45.507812 -68.429688 33.359375 -68.429688 L 26.601562 -68.429688 C 14.457031 -68.429688 5.644531 -59.621094 5.644531 -47.472656 L 5.644531 -20.957031 C 5.644531 -8.808594 14.457031 0 26.601562 0 Z M 29.9375 -15.480469 C 26.859375 -15.480469 24.378906 -17.960938 24.378906 -21.128906 L 24.378906 -47.300781 C 24.378906 -50.46875 26.859375 -52.949219 29.9375 -52.949219 C 33.101562 -52.949219 35.582031 -50.46875 35.582031 -47.300781 L 35.582031 -21.128906 C 35.582031 -17.960938 33.101562 -15.480469 29.9375 -15.480469 Z M 29.9375 -15.480469 "/></g></g></g><g fill="#878987" fill-opacity="0.502"><g transform="translate(160.260003, 217.935506)"><g><path d="M 11.375 0 L 18.648438 0 C 21.898438 0 24.378906 -2.480469 24.378906 -5.730469 L 24.378906 -21.214844 C 24.378906 -24.292969 26.859375 -26.773438 29.9375 -26.773438 L 42.769531 -26.773438 C 45.933594 -26.773438 48.414062 -24.292969 48.414062 -21.214844 L 48.414062 -5.730469 C 48.414062 -2.480469 50.894531 0 54.144531 0 L 61.414062 0 C 64.667969 0 67.148438 -2.480469 67.148438 -5.730469 L 67.148438 -23.351562 C 67.148438 -26.429688 64.921875 -28.570312 61.84375 -28.570312 L 61.074219 -28.570312 C 57.996094 -28.570312 55.515625 -31.050781 55.515625 -34.214844 C 55.515625 -37.378906 57.996094 -39.859375 61.074219 -39.859375 L 61.246094 -39.859375 C 64.667969 -39.859375 67.148438 -42.339844 67.148438 -45.761719 L 67.148438 -50.980469 C 67.148438 -61.074219 59.789062 -68.429688 49.695312 -68.429688 L 11.375 -68.429688 C 8.125 -68.429688 5.644531 -65.949219 5.644531 -62.699219 L 5.644531 -5.730469 C 5.644531 -2.480469 8.125 0 11.375 0 Z M 29.9375 -41.742188 C 26.859375 -41.742188 24.378906 -44.222656 24.378906 -47.300781 C 24.378906 -50.46875 26.859375 -52.949219 29.9375 -52.949219 L 42.769531 -52.949219 C 45.933594 -52.949219 48.414062 -50.46875 48.414062 -47.300781 C 48.414062 -44.222656 45.933594 -41.742188 42.769531 -41.742188 Z M 29.9375 -41.742188 "/></g></g></g><g fill="#878987" fill-opacity="0.502"><g transform="translate(233.049304, 217.935506)"><g><path d="M 11.375 0 L 18.648438 0 C 21.898438 0 24.378906 -2.480469 24.378906 -5.730469 L 24.378906 -21.128906 C 24.378906 -24.292969 26.859375 -26.773438 29.9375 -26.773438 C 33.101562 -26.773438 35.582031 -24.207031 35.582031 -21.128906 L 35.582031 -5.730469 C 35.582031 -2.480469 38.0625 0 41.316406 0 L 48.585938 0 C 51.835938 0 54.316406 -2.480469 54.316406 -5.730469 L 54.316406 -16.167969 C 54.316406 -18.21875 53.886719 -19.757812 52.777344 -21.46875 L 46.617188 -31.222656 C 45.335938 -33.273438 45.335938 -35.15625 46.617188 -37.207031 L 52.777344 -46.960938 C 53.886719 -48.671875 54.316406 -50.210938 54.316406 -52.261719 L 54.316406 -62.699219 C 54.316406 -65.949219 51.835938 -68.429688 48.585938 -68.429688 L 41.316406 -68.429688 C 38.0625 -68.429688 35.582031 -65.949219 35.582031 -62.699219 L 35.582031 -47.300781 C 35.582031 -44.222656 33.101562 -41.742188 29.9375 -41.742188 C 26.859375 -41.742188 24.378906 -44.222656 24.378906 -47.300781 L 24.378906 -62.699219 C 24.378906 -65.949219 21.898438 -68.429688 18.648438 -68.429688 L 11.375 -68.429688 C 8.125 -68.429688 5.644531 -65.949219 5.644531 -62.699219 L 5.644531 -5.730469 C 5.644531 -2.480469 8.125 0 11.375 0 Z M 11.375 0 "/></g></g></g><g fill="#878987" fill-opacity="0.502"><g transform="translate(293.008521, 217.935506)"><g><path d="M 11.375 0 L 47.046875 0 C 58.679688 0 67.148438 -8.46875 67.148438 -20.101562 L 67.148438 -21.640625 C 67.148438 -33.273438 58.679688 -41.742188 47.046875 -41.742188 L 29.9375 -41.742188 C 26.859375 -41.742188 24.378906 -44.222656 24.378906 -47.300781 C 24.378906 -50.46875 26.859375 -52.949219 29.9375 -52.949219 L 61.414062 -52.949219 C 64.667969 -52.949219 67.148438 -55.429688 67.148438 -58.679688 L 67.148438 -62.699219 C 67.148438 -65.949219 64.667969 -68.429688 61.414062 -68.429688 L 25.746094 -68.429688 C 14.113281 -68.429688 5.644531 -59.960938 5.644531 -48.328125 L 5.644531 -46.875 C 5.644531 -35.242188 14.113281 -26.773438 25.746094 -26.773438 L 42.769531 -26.773438 C 45.933594 -26.773438 48.414062 -24.207031 48.414062 -21.128906 C 48.414062 -17.960938 45.933594 -15.480469 42.769531 -15.480469 L 11.375 -15.480469 C 8.125 -15.480469 5.644531 -13 5.644531 -9.75 L 5.644531 -5.730469 C 5.644531 -2.480469 8.125 0 11.375 0 Z M 11.375 0 "/></g></g></g><g fill="#944cb2" fill-opacity="1"><g transform="translate(0.0294888, 220.522348)"><g><path d="M 11.375 0 L 33.617188 0 C 36.867188 0 39.347656 -2.480469 39.347656 -5.730469 L 39.347656 -7.699219 C 39.347656 -10.863281 41.828125 -13.34375 44.90625 -13.34375 C 48.070312 -13.34375 50.550781 -10.777344 50.550781 -7.699219 L 50.550781 -5.730469 C 50.550781 -2.480469 53.03125 0 56.285156 0 L 78.523438 0 C 81.773438 0 84.253906 -2.480469 84.253906 -5.730469 L 84.253906 -62.699219 C 84.253906 -65.949219 81.773438 -68.429688 78.523438 -68.429688 L 71.253906 -68.429688 C 68.003906 -68.429688 65.523438 -65.949219 65.523438 -62.699219 L 65.523438 -24.976562 C 65.523438 -21.8125 63.042969 -19.332031 59.875 -19.332031 C 56.796875 -19.332031 54.316406 -21.8125 54.316406 -24.976562 L 54.316406 -62.613281 C 54.316406 -65.949219 51.835938 -68.429688 48.585938 -68.429688 L 41.316406 -68.429688 C 37.980469 -68.429688 35.582031 -65.863281 35.582031 -62.613281 L 35.582031 -24.976562 C 35.582031 -21.8125 33.101562 -19.332031 29.9375 -19.332031 C 26.859375 -19.332031 24.378906 -21.8125 24.378906 -24.976562 L 24.378906 -62.699219 C 24.378906 -65.949219 21.898438 -68.429688 18.648438 -68.429688 L 11.375 -68.429688 C 8.125 -68.429688 5.644531 -65.949219 5.644531 -62.699219 L 5.644531 -5.730469 C 5.644531 -2.480469 8.125 0 11.375 0 Z M 11.375 0 "/></g></g></g><g fill="#944cb2" fill-opacity="1"><g transform="translate(89.925557, 220.522348)"><g><path d="M 26.601562 0 L 33.359375 0 C 45.507812 0 54.316406 -8.808594 54.316406 -20.957031 L 54.316406 -47.472656 C 54.316406 -59.621094 45.507812 -68.429688 33.359375 -68.429688 L 26.601562 -68.429688 C 14.457031 -68.429688 5.644531 -59.621094 5.644531 -47.472656 L 5.644531 -20.957031 C 5.644531 -8.808594 14.457031 0 26.601562 0 Z M 29.9375 -15.480469 C 26.859375 -15.480469 24.378906 -17.960938 24.378906 -21.128906 L 24.378906 -47.300781 C 24.378906 -50.46875 26.859375 -52.949219 29.9375 -52.949219 C 33.101562 -52.949219 35.582031 -50.46875 35.582031 -47.300781 L 35.582031 -21.128906 C 35.582031 -17.960938 33.101562 -15.480469 29.9375 -15.480469 Z M 29.9375 -15.480469 "/></g></g></g><g fill="#944cb2" fill-opacity="1"><g transform="translate(149.884774, 220.522348)"><g><path d="M 11.375 0 L 18.648438 0 C 21.898438 0 24.378906 -2.480469 24.378906 -5.730469 L 24.378906 -21.214844 C 24.378906 -24.292969 26.859375 -26.773438 29.9375 -26.773438 L 42.769531 -26.773438 C 45.933594 -26.773438 48.414062 -24.292969 48.414062 -21.214844 L 48.414062 -5.730469 C 48.414062 -2.480469 50.894531 0 54.144531 0 L 61.414062 0 C 64.667969 0 67.148438 -2.480469 67.148438 -5.730469 L 67.148438 -23.351562 C 67.148438 -26.429688 64.921875 -28.570312 61.84375 -28.570312 L 61.074219 -28.570312 C 57.996094 -28.570312 55.515625 -31.050781 55.515625 -34.214844 C 55.515625 -37.378906 57.996094 -39.859375 61.074219 -39.859375 L 61.246094 -39.859375 C 64.667969 -39.859375 67.148438 -42.339844 67.148438 -45.761719 L 67.148438 -50.980469 C 67.148438 -61.074219 59.789062 -68.429688 49.695312 -68.429688 L 11.375 -68.429688 C 8.125 -68.429688 5.644531 -65.949219 5.644531 -62.699219 L 5.644531 -5.730469 C 5.644531 -2.480469 8.125 0 11.375 0 Z M 29.9375 -41.742188 C 26.859375 -41.742188 24.378906 -44.222656 24.378906 -47.300781 C 24.378906 -50.46875 26.859375 -52.949219 29.9375 -52.949219 L 42.769531 -52.949219 C 45.933594 -52.949219 48.414062 -50.46875 48.414062 -47.300781 C 48.414062 -44.222656 45.933594 -41.742188 42.769531 -41.742188 Z M 29.9375 -41.742188 "/></g></g></g><g fill="#944cb2" fill-opacity="1"><g transform="translate(222.674074, 220.522348)"><g><path d="M 11.375 0 L 18.648438 0 C 21.898438 0 24.378906 -2.480469 24.378906 -5.730469 L 24.378906 -21.128906 C 24.378906 -24.292969 26.859375 -26.773438 29.9375 -26.773438 C 33.101562 -26.773438 35.582031 -24.207031 35.582031 -21.128906 L 35.582031 -5.730469 C 35.582031 -2.480469 38.0625 0 41.316406 0 L 48.585938 0 C 51.835938 0 54.316406 -2.480469 54.316406 -5.730469 L 54.316406 -16.167969 C 54.316406 -18.21875 53.886719 -19.757812 52.777344 -21.46875 L 46.617188 -31.222656 C 45.335938 -33.273438 45.335938 -35.15625 46.617188 -37.207031 L 52.777344 -46.960938 C 53.886719 -48.671875 54.316406 -50.210938 54.316406 -52.261719 L 54.316406 -62.699219 C 54.316406 -65.949219 51.835938 -68.429688 48.585938 -68.429688 L 41.316406 -68.429688 C 38.0625 -68.429688 35.582031 -65.949219 35.582031 -62.699219 L 35.582031 -47.300781 C 35.582031 -44.222656 33.101562 -41.742188 29.9375 -41.742188 C 26.859375 -41.742188 24.378906 -44.222656 24.378906 -47.300781 L 24.378906 -62.699219 C 24.378906 -65.949219 21.898438 -68.429688 18.648438 -68.429688 L 11.375 -68.429688 C 8.125 -68.429688 5.644531 -65.949219 5.644531 -62.699219 L 5.644531 -5.730469 C 5.644531 -2.480469 8.125 0 11.375 0 Z M 11.375 0 "/></g></g></g><g fill="#944cb2" fill-opacity="1"><g transform="translate(282.633291, 220.522348)"><g><path d="M 11.375 0 L 47.046875 0 C 58.679688 0 67.148438 -8.46875 67.148438 -20.101562 L 67.148438 -21.640625 C 67.148438 -33.273438 58.679688 -41.742188 47.046875 -41.742188 L 29.9375 -41.742188 C 26.859375 -41.742188 24.378906 -44.222656 24.378906 -47.300781 C 24.378906 -50.46875 26.859375 -52.949219 29.9375 -52.949219 L 61.414062 -52.949219 C 64.667969 -52.949219 67.148438 -55.429688 67.148438 -58.679688 L 67.148438 -62.699219 C 67.148438 -65.949219 64.667969 -68.429688 61.414062 -68.429688 L 25.746094 -68.429688 C 14.113281 -68.429688 5.644531 -59.960938 5.644531 -48.328125 L 5.644531 -46.875 C 5.644531 -35.242188 14.113281 -26.773438 25.746094 -26.773438 L 42.769531 -26.773438 C 45.933594 -26.773438 48.414062 -24.207031 48.414062 -21.128906 C 48.414062 -17.960938 45.933594 -15.480469 42.769531 -15.480469 L 11.375 -15.480469 C 8.125 -15.480469 5.644531 -13 5.644531 -9.75 L 5.644531 -5.730469 C 5.644531 -2.480469 8.125 0 11.375 0 Z M 11.375 0 "/></g></g></g></svg>